<svg xmlns="http://www.w3.org/2000/svg" viewBox="0 0 719.18 111.46"><defs><style>.cls-1{fill:#fff;}.cls-2{fill:#e29025;}</style></defs><g id="Capa_2" data-name="Capa 2"><g id="Capa_1-2" data-name="Capa 1"><polygon class="cls-1" points="0 110.36 87.91 110.36 64.4 78.94 31.42 78.94 31.42 1.09 0 1.09 0 110.36"/><polyline class="cls-2" points="67.54 74 67.54 1.09 36.12 1.09 36.12 74"/><polygon class="cls-2" points="126.71 110.36 83.04 53.18 123.05 0.78 91.63 0.78 51.62 53.18 95.29 110.36 126.71 110.36"/><path class="cls-1" d="M222.73,59.83h-47V98.28h54.61V110H161.41V1.49h68.18v11.7H175.72V48.13h47Z"/><path class="cls-1" d="M331.51,110H317.13L262.52,26.38V110H248.14V1.49h14.38l54.76,84v-84h14.23Z"/><path class="cls-1" d="M418.24,59.83h-47V98.28h54.61V110H356.92V1.49h68.17v11.7H371.23V48.13h47Z"/><path class="cls-1" d="M483.43,66.09H458V110H443.57V1.49h35.92q18.31,0,28.2,8.34t9.87,24.29a29.19,29.19,0,0,1-5.48,17.66A32.66,32.66,0,0,1,496.85,63l25.48,46.05V110H507ZM458,54.39h22q10.67,0,16.95-5.52t6.3-14.78q0-10.08-6-15.45t-17.32-5.45H458Z"/><path class="cls-1" d="M617.7,95.74a33.07,33.07,0,0,1-15.39,11.81,62.08,62.08,0,0,1-23,3.91,44.57,44.57,0,0,1-23.55-6.22,41.42,41.42,0,0,1-15.91-17.69Q534.25,76.08,534.1,61V51.48q0-24.51,11.44-38T577.69,0q17,0,27.34,8.68T617.7,33.31H603.39q-4-21.62-25.63-21.61-14.38,0-21.79,10.1t-7.49,29.27V60q0,18.27,8.34,29T579.4,99.77A49.82,49.82,0,0,0,593.48,98a21.76,21.76,0,0,0,10-6V67.65H578.36V56H617.7Z"/><path class="cls-1" d="M674.62,56,702.93,1.49h16.25l-37.41,68V110h-14.3V69.52l-37.4-68h16.39Z"/></g></g></svg>