<svg xmlns="http://www.w3.org/2000/svg" viewBox="0 0 719.17 111.49"><defs><style>.cls-1{fill:#383838;}.cls-2{fill:#e29025;}</style></defs><g id="Capa_2" data-name="Capa 2"><g id="Capa_1-2" data-name="Capa 1"><g id="Capa_2-2" data-name="Capa 2"><g id="Capa_1-2-2" data-name="Capa 1-2"><polygon class="cls-1" points="0 110.38 87.91 110.38 64.4 78.96 31.41 78.96 31.41 1.11 0 1.11 0 110.38"/><polyline class="cls-2" points="67.54 74.02 67.54 1.11 36.12 1.11 36.12 74.02"/><polygon class="cls-2" points="126.71 110.38 83.03 53.19 123.05 0.8 91.63 0.8 51.62 53.19 95.29 110.38 126.71 110.38"/><path class="cls-1" d="M222.73,59.85h-47V98.29h54.61V110H161.41V1.48h68.17v11.7H175.72v35h47Z"/><path class="cls-1" d="M331.51,110H317.13l-54.61-83.6V110H248.14V1.48h14.38l54.76,84v-84h14.23Z"/><path class="cls-1" d="M418.24,59.85h-47V98.29h54.63V110H356.92V1.48h68.17v11.7H371.22v35h47Z"/><path class="cls-1" d="M483.43,66.11H458V110H443.57V1.48h35.91q18.33,0,28.2,8.34t9.88,24.29a29.26,29.26,0,0,1-5.48,17.66,32.61,32.61,0,0,1-15.21,11.28l25.48,46.05V110H507ZM458,54.41h22q10.65,0,17-5.52t6.3-14.78q0-10.08-6-15.45t-17.38-5.45H458Z"/><path class="cls-1" d="M617.69,95.76a33,33,0,0,1-15.38,11.81,62.24,62.24,0,0,1-23,3.91,44.58,44.58,0,0,1-23.54-6.22,41.53,41.53,0,0,1-15.9-17.69Q534.25,76.1,534.1,61V51.48q0-24.51,11.43-38T577.68,0q17,0,27.35,8.68T617.69,33.3h-14.3q-4-21.6-25.63-21.6-14.38,0-21.79,10.1t-7.49,29.27v8.87q0,18.27,8.34,29.05T579.4,99.76A50,50,0,0,0,593.48,98a21.85,21.85,0,0,0,10-6V67.67H578.35V56h39.34Z"/><path class="cls-1" d="M674.62,56,702.93,1.48h16.24l-37.4,68v40.46h-14.3V69.53l-37.41-68h16.39Z"/></g></g></g></g></svg>